<svg width="818pt" height="900pt" viewBox="0 0 818 900" xmlns="http://www.w3.org/2000/svg"><g fill="#fff"><path d="M319.75 68.52c12.41-.04 24.82 0 37.23-.03.05 29.18 0 58.36.02 87.54.13 24.36-.56 48.71-1.57 73.04-1.66 35.13-3.86 70.34-9.68 105.07-4 23.95-12.28 47.04-22.56 68.97-16.76 35.33-43.1 65.23-72.71 90.38-26.49 23.31-58.11 40.28-91.36 51.77-18.81 6.48-38.17 11.47-57.88 14.25.02-24.47.02-48.95 0-73.42 23.73-3.57 46.54-11.99 67.73-23.12 25.14-13.29 47.77-31.17 66.82-52.25 19.67-21.76 35.35-46.95 47.25-73.71 14.01-30.76 21.51-63.98 26.61-97.25 6.39-42.29 9.05-85.06 10.04-127.8.14-14.48.02-28.96.06-43.44zM371.96 68.56c22.84-.15 45.69-.02 68.54-.06.01 163.67.01 327.34 0 491-22.79.05-45.59-.11-68.38.09-.29-52.19-.04-104.39-.12-156.58-.03-111.48.04-222.96-.04-334.45zM455.75 68.51c12.34-.01 24.68-.03 37.01.01-.4 49.9 1.3 99.89 7.25 149.47 4.87 38.51 11.73 77.3 27.07 113.18 14.54 34.71 35.5 66.97 62.81 92.98 26.08 24.87 57.69 43.99 92.03 54.99 9.58 3.06 19.38 5.47 29.34 6.92-.01 24.46-.02 48.92 0 73.38-19.57-2.66-38.76-7.7-57.44-14.05-22.24-7.74-43.75-17.76-63.51-30.61-14.42-9.27-27.54-20.37-40.14-31.96-20.77-19.15-39.36-40.92-53.32-65.57-10.92-19.19-18.89-39.93-25.13-61.08-5.72-21.26-8.16-43.23-10.38-65.09-4.29-47.23-5.9-94.69-5.59-142.1 0-26.82-.01-53.65 0-80.47zM144.12 607.03c8.73-11.17 26.8-13.08 37.51-3.71 4.38 3.69 7.45 8.78 9.02 14.26 19.83 68.23 39.75 136.43 59.55 204.67-11.7.01-23.41-.02-35.11.01-5.52-18.81-10.91-37.66-16.36-56.49-22.63-.05-45.25-.01-67.88-.02-5.54 18.82-11.01 37.66-16.45 56.52-11.64-.04-23.28-.01-34.92-.02 18.84-65.09 37.7-130.18 56.63-195.25 2.25-6.8 3.1-14.41 8.01-19.97m20.66 41.81c-8.3 28.27-16.43 56.59-24.68 84.87 16.45.08 32.89.03 49.33.03l-24.65-84.9zM390.65 608.5c6.1-8.85 17.89-13.14 28.27-10.41 9.5 2.19 16.77 10.38 19.28 19.6l59.5 204.52c-11.72.09-23.43 0-35.15.05-5.45-18.83-10.84-37.68-16.33-56.51-22.59.01-45.18-.04-67.77.02l-16.37 56.48c-11.63.01-23.25-.01-34.88.01 18.83-65.45 37.88-130.84 56.86-196.24 1.99-5.91 2.76-12.42 6.59-17.52m-2.85 125.24c16.38.02 32.75.01 49.13.01-8.15-28.36-16.43-56.68-24.55-85.04-8.18 28.35-16.44 56.67-24.58 85.03zM224 597.75h127v34.25c-15.59.01-31.17-.02-46.75.01 0 63.41.01 126.83-.01 190.24h-33.49c0-63.41-.01-126.83.01-190.24-15.59-.03-31.17 0-46.76-.01 0-11.42-.01-22.83 0-34.25zM534.92 599.14c3.22-1.11 6.65-1.49 10.05-1.41 13.35.05 26.7.01 40.05.02 22.48.41 43.94 14.36 53.67 34.59 6.74 13.14 7.43 28.42 5.73 42.83-1.17 15.09-7.5 30.18-19.1 40.18-6.13 5.46-13.76 8.77-20.32 13.63-3.6 2.74-3.78 8.07-1.92 11.88 17.72 27.35 36.14 54.27 54.23 81.39-13.23.02-26.46-.03-39.69.02-17.32-26.01-34.46-52.15-51.71-78.2-5.07-7.41-6.45-17.23-3.41-25.69 2.37-6.49 8.04-11.24 14.36-13.69 12.06-4.6 23.95-11.83 30.63-23.21 5.08-8.55 4.82-19.1 2.53-28.46-2.68-12.15-14.52-21.71-27.03-21.29-8.65.06-17.3-.04-25.94.04-3.91-.09-7.59 3.31-7.54 7.27l-.02 183.22c-11.25-.02-22.49 0-33.74-.01-.02-65.75.02-131.5-.02-197.25.07-11.52 8.26-22.36 19.19-25.86zM675 597.75h35.5c-.01 74.84.02 149.67-.02 224.51-11.82-.03-23.65 0-35.48-.01v-224.5zM736.44 796.63c7.74-2.26 16.4 4.19 16.11 12.34.57 7.72-6.96 14.37-14.53 13.19-6.44-.63-11.79-6.65-11.32-13.16-.19-5.76 4.15-11.14 9.74-12.37m-.17 2.58c-2.81.95-5.25 3.01-6.31 5.83-3.2 6.28 1.96 14.61 8.97 14.72 7 .79 13.16-6.81 10.81-13.46-1.4-5.67-8.03-9.01-13.47-7.09zM733.75 802.52c3.26.25 6.95-.87 9.88.97 2.35 2.28.81 5.96-2.04 6.91 1.7 1.86 3.08 3.98 4.31 6.2-3.85 1.1-4.34-3.06-6.3-5.18-.95-.74-2.18-.82-3.27-1.17-.07 2.08-.09 4.15-.1 6.25-.62 0-1.86 0-2.48.01 0-4.67-.01-9.33 0-13.99m2.51 1.91v4.13c2.03-.22 5.86.59 5.97-2.45-1-2.28-4.05-1.4-5.97-1.68z"/></g><g fill="#e41b23"><path d="M23.42 0h771.14c12 1.27 22.16 11.44 23.44 23.44v853.15c-1.29 11.98-11.41 22.1-23.38 23.41h-771.2c-12-1.28-22.17-11.45-23.42-23.47v-853.1c1.28-11.99 11.43-22.14 23.42-23.43m296.33 68.52c-.04 14.48.08 28.96-.06 43.44-.99 42.74-3.65 85.51-10.04 127.8-5.1 33.27-12.6 66.49-26.61 97.25-11.9 26.76-27.58 51.95-47.25 73.71-19.05 21.08-41.68 38.96-66.82 52.25-21.19 11.13-44 19.55-67.73 23.12.02 24.47.02 48.95 0 73.42 19.71-2.78 39.07-7.77 57.88-14.25 33.25-11.49 64.87-28.46 91.36-51.77 29.61-25.15 55.95-55.05 72.71-90.38 10.28-21.93 18.56-45.02 22.56-68.97 5.82-34.73 8.02-69.94 9.68-105.07 1.01-24.33 1.7-48.68 1.57-73.04-.02-29.18.03-58.36-.02-87.54-12.41.03-24.82-.01-37.23.03m52.21.04c.08 111.49.01 222.97.04 334.45.08 52.19-.17 104.39.12 156.58 22.79-.2 45.59-.04 68.38-.09.01-163.66.01-327.33 0-491-22.85.04-45.7-.09-68.54.06m83.79-.05c-.01 26.82 0 53.65 0 80.47-.31 47.41 1.3 94.87 5.59 142.1 2.22 21.86 4.66 43.83 10.38 65.09 6.24 21.15 14.21 41.89 25.13 61.08 13.96 24.65 32.55 46.42 53.32 65.57 12.6 11.59 25.72 22.69 40.14 31.96 19.76 12.85 41.27 22.87 63.51 30.61 18.68 6.35 37.87 11.39 57.44 14.05-.02-24.46-.01-48.92 0-73.38-9.96-1.45-19.76-3.86-29.34-6.92-34.34-11-65.95-30.12-92.03-54.99-27.31-26.01-48.27-58.27-62.81-92.98-15.34-35.88-22.2-74.67-27.07-113.18-5.95-49.58-7.65-99.57-7.25-149.47-12.33-.04-24.67-.02-37.01-.01m-311.63 538.52c-4.91 5.56-5.76 13.17-8.01 19.97-18.93 65.07-37.79 130.16-56.63 195.25 11.64.01 23.28-.02 34.92.02 5.44-18.86 10.91-37.7 16.45-56.52 22.63.01 45.25-.03 67.88.02 5.45 18.83 10.84 37.68 16.36 56.49 11.7-.03 23.41 0 35.11-.01-19.8-68.24-39.72-136.44-59.55-204.67-1.57-5.48-4.64-10.57-9.02-14.26-10.71-9.37-28.78-7.46-37.51 3.71m246.53 1.47c-3.83 5.1-4.6 11.61-6.59 17.52-18.98 65.4-38.03 130.79-56.86 196.24 11.63-.02 23.25 0 34.88-.01l16.37-56.48c22.59-.06 45.18-.01 67.77-.02 5.49 18.83 10.88 37.68 16.33 56.51 11.72-.05 23.43.04 35.15-.05l-59.5-204.52c-2.51-9.22-9.78-17.41-19.28-19.6-10.38-2.73-22.17 1.56-28.27 10.41m-166.65-10.75c-.01 11.42 0 22.83 0 34.25 15.59.01 31.17-.02 46.76.01-.02 63.41-.01 126.83-.01 190.24h33.49c.02-63.41.01-126.83.01-190.24 15.58-.03 31.16 0 46.75-.01v-34.25h-127m310.92 1.39c-10.93 3.5-19.12 14.34-19.19 25.86.04 65.75 0 131.5.02 197.25 11.25.01 22.49-.01 33.74.01l.02-183.22c-.05-3.96 3.63-7.36 7.54-7.27 8.64-.08 17.29.02 25.94-.04 12.51-.42 24.35 9.14 27.03 21.29 2.29 9.36 2.55 19.91-2.53 28.46-6.68 11.38-18.57 18.61-30.63 23.21-6.32 2.45-11.99 7.2-14.36 13.69-3.04 8.46-1.66 18.28 3.41 25.69 17.25 26.05 34.39 52.19 51.71 78.2 13.23-.05 26.46 0 39.69-.02-18.09-27.12-36.51-54.04-54.23-81.39-1.86-3.81-1.68-9.14 1.92-11.88 6.56-4.86 14.19-8.17 20.32-13.63 11.6-10 17.93-25.09 19.1-40.18 1.7-14.41 1.01-29.69-5.73-42.83-9.73-20.23-31.19-34.18-53.67-34.59-13.35-.01-26.7.03-40.05-.02-3.4-.08-6.83.3-10.05 1.41m140.08-1.39v224.5c11.83.01 23.66-.02 35.48.01.04-74.84.01-149.67.02-224.51h-35.5m61.44 198.88c-5.59 1.23-9.93 6.61-9.74 12.37-.47 6.51 4.88 12.53 11.32 13.16 7.57 1.18 15.1-5.47 14.53-13.19.29-8.15-8.37-14.6-16.11-12.34zM387.8 733.74c8.14-28.36 16.4-56.68 24.58-85.03 8.12 28.36 16.4 56.68 24.55 85.04-16.38 0-32.75.01-49.13-.01zM164.78 648.84l24.65 84.9c-16.44 0-32.88.05-49.33-.03 8.25-28.28 16.38-56.6 24.68-84.87zM736.27 799.21c5.44-1.92 12.07 1.42 13.47 7.09 2.35 6.65-3.81 14.25-10.81 13.46-7.01-.11-12.17-8.44-8.97-14.72 1.06-2.82 3.5-4.88 6.31-5.83m-2.52 3.31c-.01 4.66 0 9.32 0 13.99.62-.01 1.86-.01 2.48-.01.01-2.1.03-4.17.1-6.25 1.09.35 2.32.43 3.27 1.17 1.96 2.12 2.45 6.28 6.3 5.18-1.23-2.22-2.61-4.34-4.31-6.2 2.85-.95 4.39-4.63 2.04-6.91-2.93-1.84-6.62-.72-9.88-.97zM736.26 804.43c1.92.28 4.97-.6 5.97 1.68-.11 3.04-3.94 2.23-5.97 2.45v-4.13z"/></g></svg>