<svg xmlns="http://www.w3.org/2000/svg" xmlns:xlink="http://www.w3.org/1999/xlink" version="1" width="49.8" height="72.48" viewBox="0 0 39.212 52.491" overflow="visible" enable-background="new 0 0 39.212 52.491"><defs><linearGradient id="b"><stop offset="0" stop-color="#cb4e13"/><stop offset="1" stop-color="#cb4e13" stop-opacity="0"/></linearGradient><linearGradient id="a"><stop offset="0" stop-color="#c50f0f"/><stop offset=".224" stop-color="#c50f0f" stop-opacity=".498"/><stop offset="1" stop-color="#c50f0f" stop-opacity="0"/></linearGradient><clipPath id="l"><polyline points="38.432,25.438 19.583,6.597 0.733,25.438 19.583,44.279"/></clipPath><clipPath><polyline points="20.617,11.22 12.987,18.846 20.617,26.472"/></clipPath><clipPath><polyline points="18.532,39.655 26.162,32.029 18.532,24.403"/></clipPath><linearGradient xlink:href="#a" x1="-.098" y1="26.041" x2="39.271" y2="26.041" gradientUnits="userSpaceOnUse"/><linearGradient xlink:href="#b" id="o" x1="15.546" y1="18.159" x2="21.058" y2="18.159" gradientUnits="userSpaceOnUse"/><linearGradient xlink:href="#b" id="p" gradientUnits="userSpaceOnUse" gradientTransform="matrix(-1 0 0 1 40.049 13.287)" x1="15.546" y1="18.159" x2="21.058" y2="18.159"/><linearGradient xlink:href="#b" gradientUnits="userSpaceOnUse" x1=".984" y1="26.041" x2="19.586" y2="26.041"/><linearGradient xlink:href="#b" id="m" gradientUnits="userSpaceOnUse" x1=".984" y1="26.041" x2="19.586" y2="26.041" gradientTransform="translate(-.186 -.135)"/><linearGradient xlink:href="#b" id="n" gradientUnits="userSpaceOnUse" gradientTransform="translate(-38.986 -.135)" x1=".984" y1="26.041" x2="19.586" y2="26.041"/></defs><g transform="translate(-.389 .5)"><defs><rect id="c" width="39.207" height="52.491"/></defs><clipPath id="d"><use xlink:href="#c" width="39.212" height="52.491"/></clipPath><g clip-path="url(#d)"><defs><rect id="e" width="39.207" height="52.491"/></defs><clipPath id="f"><use xlink:href="#e" width="39.212" height="52.491"/></clipPath><g clip-path="url(#f)"><defs><rect id="g" width="39.207" height="52.491"/></defs><clipPath id="h"><use xlink:href="#g" width="39.212" height="52.491"/></clipPath><g clip-path="url(#h)"><defs><rect id="i" y=".004" width="39.212" height="52.483"/></defs><clipPath id="j"><use xlink:href="#i" width="39.212" height="52.491"/></clipPath><g clip-path="url(#j)" transform="translate(.576 -.366)"><defs><polyline id="k" points="38.432,25.438 19.583,6.597 0.733,25.438 19.583,44.279"/></defs><clipPath><use xlink:href="#k" width="39.212" height="52.491"/></clipPath></g><path clip-path="url(#j)" d="M15.889 5.203c-1.067 0-2.055-.319-2.718-.907-.498-.451-.737-1.061-.737-1.685 0-.62.251-1.229.737-1.675.616-.556 1.698-.908 2.718-.908 1.125 0 2.027.284 2.717.908.494.446.729 1.055.729 1.675 0 .604-.251 1.238-.729 1.685-.643.592-1.651.907-2.717.907v-.682c.564 0 1.09-.194 1.455-.557.365-.363.532-.808.532-1.353 0-.52-.184-1.008-.533-1.354-.361-.352-.898-.557-1.455-.557-.561 0-1.098.2-1.459.557-.349.347-.533.835-.533 1.354 0 .519.184 1.007.533 1.354.361.357.894.557 1.459.557" fill="#000364"/><path clip-path="url(#j)" d="M8.101.028c-.573 0-1.22.11-1.769.357-.51.226-.925.593-.925 1.196 0 .546.349.866.341.861.145.137.384.368 1.008.505.278.057.87.151 1.463.215.587.062 1.168.12 1.403.178.188.047.502.115.502.467 0 .352-.333.456-.388.483-.059.021-.455.205-1.173.205-.525 0-1.161-.157-1.392-.241-.266-.095-.545-.221-.807-.542-.063-.078-.165-.293-.165-.508h-.647v1.81h.717v-.247c0-.025.036-.142.157-.084.15.069.592.242 1.051.336.376.079.624.137 1.09.137.769 0 1.181-.126 1.463-.205.271-.078.6-.215.871-.43.145-.115.466-.415.466-.955 0-.515-.278-.835-.376-.935-.133-.131-.298-.236-.466-.314-.149-.074-.38-.158-.573-.2-.373-.094-1.208-.204-1.608-.246-.42-.042-1.149-.105-1.439-.194-.09-.026-.271-.115-.271-.32 0-.152.083-.278.247-.378.255-.163.777-.264 1.322-.264.643 0 1.188.147 1.533.3.117.053.255.126.364.215.122.105.298.31.357.604h.581v-1.575h-.647v.179c0 .063-.059.136-.177.073-.29-.152-1.109-.477-2.113-.483" fill="#000364"/><path clip-path="url(#j)" d="M22.304.317l3.164 2.855-.032-1.92c-.004-.252-.05-.358-.321-.358h-.596v-.577h2.701v.577h-.58c-.275 0-.295.09-.299.357l.052 3.668h-.926l-3.643-3.248v2.304c.004.252.016.367.274.367h.646v.577h-2.654v-.577h.62c.232 0 .224-.221.224-.378v-2.692c0-.173-.023-.378-.389-.378h-.502v-.577" fill="#000364"/><path clip-path="url(#j)" d="M30.31 4.342l.16-.011c.063-.016.106-.063.126-.11l.012-.12v-.908l-.039-.084c-.039-.053-1.655-1.879-1.729-1.963-.09-.1-.254-.252-.498-.252h-.561v-.577h3.168v.572h-.38c-.091 0-.149.084-.07.179 0 0 1.066 1.274 1.074 1.291l.031.005 1.103-1.291c.051-.063.02-.179-.095-.179h-.392v-.577h2.6v.577h-.58c-.213 0-.299.037-.455.216l-1.749 1.994-.024.089v.908l.016.12c.021.048.06.095.122.11l.161.011h.592v.577h-3.152v-.577" fill="#000364"/><polyline clip-path="url(#j)" points="5.235,50.193 6.854,50.193 6.854,50.44 5.544,50.44 5.544,51.123 6.772,51.123 6.772,51.369 5.544,51.369 5.544,52.114 6.89,52.114 6.89,52.361 5.235,52.361" transform="translate(.576 -.366)" fill="#000364"/><polyline clip-path="url(#j)" points="9.097,50.193 9.411,50.193 9.411,52.361 8.983,52.361 7.658,50.509 7.65,50.509 7.65,52.361 7.34,52.361 7.34,50.193 7.764,50.193 9.093,52.041 9.097,52.041" transform="translate(.576 -.366)" fill="#000364"/><polyline clip-path="url(#j)" points="10.576,50.456 9.654,50.456 9.654,50.193 11.807,50.193 11.807,50.456 10.885,50.456 10.885,52.361 10.576,52.361" transform="translate(.576 -.366)" fill="#000364"/><polyline clip-path="url(#j)" points="12.077,50.193 13.697,50.193 13.697,50.44 12.387,50.44 12.387,51.123 13.614,51.123 13.614,51.369 12.387,51.369 12.387,52.114 13.732,52.114 13.732,52.361 12.077,52.361" transform="translate(.576 -.366)" fill="#000364"/><path clip-path="url(#j)" d="M15.03 51.995h-.31v-2.168h1.067c.667 0 .819.226.819.572 0 .263-.192.462-.498.504v.005c.294.037.373.152.428.521.035.23.063.425.122.566h-.33c-.055-.152-.09-.457-.145-.703-.039-.152-.141-.263-.549-.263h-.604m0-.247h.713c.33 0 .53-.078.53-.356 0-.263-.142-.352-.526-.352h-.717v.708z" fill="#000364"/><polyline clip-path="url(#j)" points="17.136,50.456 16.214,50.456 16.214,50.193 18.367,50.193 18.367,50.456 17.445,50.456 17.445,52.361 17.136,52.361" transform="translate(.576 -.366)" fill="#000364"/><path clip-path="url(#j)" d="M20.492 51.429h-1.329l-.282.566h-.345l1.114-2.168h.365l1.113 2.168h-.356m-.402-.813l-.541-1.092-.541 1.092h1.082z" fill="#000364"/><rect x="20.786" y="50.193" clip-path="url(#j)" width=".313" height="2.168" transform="translate(.576 -.366)" fill="#000364"/><polyline clip-path="url(#j)" points="23.319,50.193 23.629,50.193 23.629,52.361 23.205,52.361 21.877,50.509 21.873,50.509 21.873,52.361 21.559,52.361 21.559,50.193 21.986,50.193 23.312,52.041 23.319,52.041" transform="translate(.576 -.366)" fill="#000364"/><polyline clip-path="url(#j)" points="24.414,50.414 24.409,50.414 24.409,52.361 24.096,52.361 24.096,50.193 24.594,50.193 25.551,52.094 26.508,50.193 27.006,50.193 27.006,52.361 26.691,52.361 26.691,50.414 26.688,50.414 25.715,52.361 25.386,52.361" transform="translate(.576 -.366)" fill="#000364"/><polyline clip-path="url(#j)" points="27.468,50.193 29.088,50.193 29.088,50.44 27.777,50.44 27.777,51.123 29.005,51.123 29.005,51.369 27.777,51.369 27.777,52.114 29.127,52.114 29.127,52.361 27.468,52.361" transform="translate(.576 -.366)" fill="#000364"/><polyline clip-path="url(#j)" points="31.295,50.193 31.609,50.193 31.609,52.361 31.182,52.361 29.855,50.509 29.848,50.509 29.848,52.361 29.539,52.361 29.539,50.193 29.962,50.193 31.291,52.041 31.295,52.041" transform="translate(.576 -.366)" fill="#000364"/><polyline clip-path="url(#j)" points="32.797,50.456 31.875,50.456 31.875,50.193 34.028,50.193 34.028,50.456 33.106,50.456 33.106,52.361 32.797,52.361" transform="translate(.576 -.366)" fill="#000364"/><path clip-path="url(#j)" d="M8.964 48.154c-.102.719-.781.992-1.577.992-1.161 0-1.698-.813-1.698-1.711 0-.777.463-1.711 1.827-1.711.772 0 1.361.388 1.404.939h-.525c-.079-.42-.463-.572-.914-.572-.741 0-1.298.431-1.298 1.344s.557 1.344 1.298 1.344c.447 0 .878-.2.96-.625" fill="#000364"/><path clip-path="url(#j)" d="M11.183 45.724c1.365 0 1.827.934 1.827 1.711 0 .776-.462 1.711-1.827 1.711s-1.831-.935-1.831-1.711c0-.778.466-1.711 1.831-1.711m0 3.055c.788 0 1.333-.541 1.333-1.344 0-.804-.545-1.344-1.333-1.344-.788 0-1.333.54-1.333 1.344-.001.803.545 1.344 1.333 1.344z" fill="#000364"/><polyline clip-path="url(#j)" points="13.403,46.51 13.395,46.51 13.395,49.428 12.928,49.428 12.928,46.174 13.673,46.174 15.108,49.028 16.54,46.174 17.289,46.174 17.289,49.428 16.818,49.428 16.818,46.51 16.81,46.51 15.355,49.428 14.857,49.428" transform="translate(.576 -.366)" fill="#000364"/><path clip-path="url(#j)" d="M18.621 45.808h1.494c.98 0 1.311.294 1.311.882 0 .566-.377.944-1.165.944h-1.173v1.428h-.466m1.521-1.801c.541 0 .785-.188.785-.571 0-.353-.201-.51-.82-.51h-1.02v1.081h1.055z" fill="#000364"/><path clip-path="url(#j)" d="M24.417 45.802h.471v1.942c0 .929-.632 1.396-1.514 1.396-.886 0-1.514-.467-1.514-1.396v-1.942h.467v1.963c0 .625.372 1.008 1.047 1.008.671 0 1.043-.383 1.043-1.008" fill="#000364"/><polyline clip-path="url(#j)" points="25.994,46.572 24.613,46.572 24.613,46.174 27.84,46.174 27.84,46.572 26.46,46.572 26.46,49.428 25.994,49.428" transform="translate(.576 -.366)" fill="#000364"/><polyline clip-path="url(#j)" points="28.146,46.174 30.582,46.174 30.582,46.546 28.617,46.546 28.617,47.569 30.452,47.569 30.452,47.942 28.617,47.942 28.617,49.055 30.633,49.055 30.633,49.428 28.146,49.428" transform="translate(.576 -.366)" fill="#000364"/><path clip-path="url(#j)" d="M32.157 49.062h-.47v-3.254h1.6c1.004 0 1.23.341 1.23.86 0 .399-.289.692-.744.756v.011c.438.052.557.23.643.781.051.347.094.636.185.846h-.498c-.087-.231-.134-.688-.22-1.05-.055-.236-.208-.399-.819-.399h-.906m-.001-.373h1.067c.498 0 .795-.115.795-.53 0-.398-.215-.53-.787-.53h-1.075v1.06z" fill="#000364"/><path clip-path="url(#j)" d="M37.675 52.121c.384 0 .745-.152 1.02-.425.271-.268.423-.63.423-1.019 0-.383-.152-.745-.423-1.019-.274-.272-.636-.425-1.02-.425-.796 0-1.443.65-1.443 1.443 0 .389.149.751.42 1.019.274.274.634.426 1.023.426m-1.204-1.443c0-.32.125-.619.354-.851.227-.226.529-.352.851-.352.317 0 .619.126.847.352.228.231.354.53.354.851 0 .661-.541 1.202-1.2 1.202-.321 0-.624-.126-.851-.352-.23-.225-.355-.53-.355-.85z" fill="#000364"/><path clip-path="url(#j)" d="M38.385 51.35l-.047-.068-.012-.126-.008-.205c-.005-.1-.024-.168-.06-.215l-.095-.079.118-.115c.044-.068.067-.146.067-.246 0-.189-.083-.326-.24-.394-.082-.037-.184-.059-.305-.059h-.746v1.611h.279v-.661h.44l.173.026c.055.026.086.084.09.168l.012.257.012.126.02.063.012.021h.31100000000000005v-.094m-.344-1.044c0 .09-.02.147-.066.179-.051.037-.121.053-.212.053h-.446v-.452h.475l.152.026c.066.036.097.099.097.194z" fill="#000364"/><g transform="translate(.393 -.587)" clip-path="url(#l)"><rect transform="scale(-1)" y="-45.689" x="-39.085" height="39.566" width="39.369" fill="#ffe403"/><rect y="6.123" x="-.285" height="39.566" width="39.369" fill="url(#m)"/><rect width="39.369" height="39.566" x="-39.085" y="6.123" transform="scale(-1 1)" fill="url(#n)"/></g><path d="M13.381 18.159l7.677 7.775v-15.453l-7.677 7.677z" color="#000" fill="url(#o)" fill-rule="evenodd" overflow="visible" enable-background="accumulate"/><path d="M26.668 31.446l-7.677 7.775v-15.453l7.677 7.677z" color="#000" fill="url(#p)" fill-rule="evenodd" overflow="visible" enable-background="accumulate"/></g></g></g></g></svg>