<?xml version="1.0" encoding="UTF-8" standalone="no"?>
<!-- Generator: Adobe Illustrator 12.0.0, SVG Export Plug-In . SVG Version: 6.00 Build 51448)  -->
<svg
   xmlns:dc="http://purl.org/dc/elements/1.1/"
   xmlns:cc="http://web.resource.org/cc/"
   xmlns:rdf="http://www.w3.org/1999/02/22-rdf-syntax-ns#"
   xmlns:svg="http://www.w3.org/2000/svg"
   xmlns="http://www.w3.org/2000/svg"
   xmlns:xlink="http://www.w3.org/1999/xlink"
   xmlns:sodipodi="http://sodipodi.sourceforge.net/DTD/sodipodi-0.dtd"
   xmlns:inkscape="http://www.inkscape.org/namespaces/inkscape"
   version="1.0"
   id="Layer_1"
   width="49.799999"
   height="72.480003"
   viewBox="0 0 39.212 52.491"
   overflow="visible"
   enable-background="new 0 0 39.212 52.491"
   xml:space="preserve"
   sodipodi:version="0.32"
   inkscape:version="0.45"
   sodipodi:docname="Sony Computer Entertainment logo.svg"
   inkscape:output_extension="org.inkscape.output.svg.inkscape"
   sodipodi:docbase="C:\Documents and Settings\Sigurd\Mine dokumenter\Mine bilder"
   sodipodi:modified="true"><metadata
   id="metadata2484"><rdf:RDF><cc:Work
       rdf:about=""><dc:format>image/svg+xml</dc:format><dc:type
         rdf:resource="http://purl.org/dc/dcmitype/StillImage" /></cc:Work></rdf:RDF></metadata><defs
   id="defs2482"><linearGradient
     inkscape:collect="always"
     id="linearGradient12743"><stop
       style="stop-color:#cb4e13;stop-opacity:1;"
       offset="0"
       id="stop12745" /><stop
       style="stop-color:#cb4e13;stop-opacity:0;"
       offset="1"
       id="stop12747" /></linearGradient><linearGradient
     id="linearGradient6825"><stop
       style="stop-color:#c50f0f;stop-opacity:1;"
       offset="0"
       id="stop6827" /><stop
       id="stop6845"
       offset="0.22448979"
       style="stop-color:#c50f0f;stop-opacity:0.49803922;" /><stop
       style="stop-color:#c50f0f;stop-opacity:0;"
       offset="1"
       id="stop6829" /></linearGradient><clipPath
     id="XMLID_19_">
						<polyline
   points="38.432,25.438 19.583,6.597 0.733,25.438 19.583,44.279       "
   id="use2397" />
					</clipPath><clipPath
     id="XMLID_20_">
						<polyline
   points="20.617,11.22 12.987,18.846 20.617,26.472       "
   id="use2409" />
					</clipPath><clipPath
     id="XMLID_21_">
						<polyline
   points="18.532,39.655 26.162,32.029 18.532,24.403       "
   id="use2421" />
					</clipPath><linearGradient
     inkscape:collect="always"
     xlink:href="#linearGradient6825"
     id="linearGradient6831"
     x1="-0.098423697"
     y1="26.040779"
     x2="39.271057"
     y2="26.040779"
     gradientUnits="userSpaceOnUse"
     spreadMethod="pad" /><linearGradient
     inkscape:collect="always"
     xlink:href="#linearGradient12743"
     id="linearGradient12749"
     x1="15.546349"
     y1="18.158503"
     x2="21.058296"
     y2="18.158503"
     gradientUnits="userSpaceOnUse" /><linearGradient
     inkscape:collect="always"
     xlink:href="#linearGradient12743"
     id="linearGradient12767"
     gradientUnits="userSpaceOnUse"
     gradientTransform="matrix(-1,0,0,1,40.049255,13.287199)"
     x1="15.546349"
     y1="18.158503"
     x2="21.058296"
     y2="18.158503" /><linearGradient
     inkscape:collect="always"
     xlink:href="#linearGradient12743"
     id="linearGradient13744"
     gradientUnits="userSpaceOnUse"
     spreadMethod="pad"
     x1="0.98423696"
     y1="26.040779"
     x2="19.586317"
     y2="26.040779" /><linearGradient
     inkscape:collect="always"
     xlink:href="#linearGradient12743"
     id="linearGradient15690"
     gradientUnits="userSpaceOnUse"
     spreadMethod="pad"
     x1="0.98423696"
     y1="26.040779"
     x2="19.586317"
     y2="26.040779"
     gradientTransform="translate(-0.1864833,-0.1348275)" /><linearGradient
     inkscape:collect="always"
     xlink:href="#linearGradient12743"
     id="linearGradient15694"
     gradientUnits="userSpaceOnUse"
     gradientTransform="translate(-38.986146,-0.1348275)"
     spreadMethod="pad"
     x1="0.98423696"
     y1="26.040779"
     x2="19.586317"
     y2="26.040779" /></defs><sodipodi:namedview
   inkscape:window-height="721"
   inkscape:window-width="1024"
   inkscape:pageshadow="2"
   inkscape:pageopacity="0.0"
   guidetolerance="10.0"
   gridtolerance="10.0"
   objecttolerance="10.0"
   borderopacity="1.0"
   bordercolor="#666666"
   pagecolor="#ffffff"
   id="base"
   showguides="true"
   inkscape:guide-bbox="true"
   width="49.799999px"
   height="72.48px"
   inkscape:zoom="6.0628663"
   inkscape:cx="19.606001"
   inkscape:cy="42.427125"
   inkscape:window-x="-4"
   inkscape:window-y="-4"
   inkscape:current-layer="g2399" />
<g
   id="g2357"
   transform="translate(-0.3890996,0.5004993)">
	<defs
   id="defs2359">
		<rect
   id="XMLID_1_"
   width="39.207001"
   height="52.491001"
   x="0"
   y="0" />
	</defs>
	<clipPath
   id="XMLID_15_">
		<use
   xlink:href="#XMLID_1_"
   id="use2363"
   x="0"
   y="0"
   width="39.212002"
   height="52.491001" />
	</clipPath>
	<g
   clip-path="url(#XMLID_15_)"
   id="g2365">
		<defs
   id="defs2367">
			<rect
   id="XMLID_3_"
   width="39.207001"
   height="52.491001"
   x="0"
   y="0" />
		</defs>
		<clipPath
   id="XMLID_16_">
			<use
   xlink:href="#XMLID_3_"
   id="use2371"
   x="0"
   y="0"
   width="39.212002"
   height="52.491001" />
		</clipPath>
		<g
   clip-path="url(#XMLID_16_)"
   id="g2373">
			<defs
   id="defs2375">
				<rect
   id="XMLID_5_"
   width="39.207001"
   height="52.491001"
   x="0"
   y="0" />
			</defs>
			<clipPath
   id="XMLID_17_">
				<use
   xlink:href="#XMLID_5_"
   id="use2379"
   x="0"
   y="0"
   width="39.212002"
   height="52.491001" />
			</clipPath>
			<g
   clip-path="url(#XMLID_17_)"
   id="g2381">
				<defs
   id="defs2383">
					<rect
   id="XMLID_7_"
   y="0.0040000002"
   width="39.212002"
   height="52.483002"
   x="0" />
				</defs>
				<clipPath
   id="XMLID_18_">
					<use
   xlink:href="#XMLID_7_"
   id="use2387"
   x="0"
   y="0"
   width="39.212002"
   height="52.491001" />
				</clipPath>
				
				
				
				
				
				
				
				
				
				
				
				
				
				
				
				
				
				
				
				
				
				
				
				
				
				
				
				
				
				
				
			<g
   clip-path="url(#XMLID_18_)"
   id="g2391"
   transform="translate(0.575583,-0.3656718)">
					<defs
   id="defs2393">
						<polyline
   id="XMLID_9_"
   points="38.432,25.438 19.583,6.597 0.733,25.438 19.583,44.279       " />
					</defs>
					<clipPath
   id="clipPath5636">
						<use
   xlink:href="#XMLID_9_"
   id="use5638"
   x="0"
   y="0"
   width="39.212002"
   height="52.491001" />
					</clipPath>
					
				</g><path
   clip-path="url(#XMLID_18_)"
   d="M 15.313,5.179 C 14.246,5.179 13.258,4.86 12.595,4.272 C 12.097,3.821 11.858,3.211 11.858,2.587 C 11.858,1.967 12.109,1.358 12.595,0.912 C 13.211,0.356 14.293,0.004 15.313,0.004 C 16.438,0.004 17.34,0.288 18.03,0.912 C 18.524,1.358 18.759,1.967 18.759,2.587 C 18.759,3.191 18.508,3.825 18.03,4.272 C 17.387,4.864 16.379,5.179 15.313,5.179 L 15.313,4.497 C 15.877,4.497 16.403,4.303 16.768,3.94 C 17.133,3.577 17.3,3.132 17.3,2.587 C 17.3,2.067 17.116,1.579 16.767,1.233 C 16.406,0.881 15.869,0.676 15.312,0.676 C 14.751,0.676 14.214,0.876 13.853,1.233 C 13.504,1.58 13.32,2.068 13.32,2.587 C 13.32,3.106 13.504,3.594 13.853,3.941 C 14.214,4.298 14.747,4.498 15.312,4.498"
   id="path2427"
   style="fill:#000364;fill-opacity:1"
   transform="translate(0.575583,2.3941138e-2)" /><path
   clip-path="url(#XMLID_18_)"
   d="M 7.525,0.004 C 6.952,0.004 6.305,0.114 5.756,0.361 C 5.246,0.587 4.831,0.954 4.831,1.557 C 4.831,2.103 5.18,2.423 5.172,2.418 C 5.317,2.555 5.556,2.786 6.18,2.923 C 6.458,2.98 7.05,3.074 7.643,3.138 C 8.23,3.2 8.811,3.258 9.046,3.316 C 9.234,3.363 9.548,3.431 9.548,3.783 C 9.548,4.135 9.215,4.239 9.16,4.266 C 9.101,4.287 8.705,4.471 7.987,4.471 C 7.462,4.471 6.826,4.314 6.595,4.23 C 6.329,4.135 6.05,4.009 5.788,3.688 C 5.725,3.61 5.623,3.395 5.623,3.18 L 4.976,3.18 L 4.976,4.99 L 5.693,4.99 C 5.693,4.99 5.693,4.791 5.693,4.743 C 5.693,4.718 5.729,4.601 5.85,4.659 C 6,4.728 6.442,4.901 6.901,4.995 C 7.277,5.074 7.525,5.132 7.991,5.132 C 8.76,5.132 9.172,5.006 9.454,4.927 C 9.725,4.849 10.054,4.712 10.325,4.497 C 10.47,4.382 10.791,4.082 10.791,3.542 C 10.791,3.027 10.513,2.707 10.415,2.607 C 10.282,2.476 10.117,2.371 9.949,2.293 C 9.8,2.219 9.569,2.135 9.376,2.093 C 9.003,1.999 8.168,1.889 7.768,1.847 C 7.348,1.805 6.619,1.742 6.329,1.653 C 6.239,1.627 6.058,1.538 6.058,1.333 C 6.058,1.181 6.141,1.055 6.305,0.955 C 6.56,0.792 7.082,0.691 7.627,0.691 C 8.27,0.691 8.815,0.838 9.16,0.991 C 9.277,1.044 9.415,1.117 9.524,1.206 C 9.646,1.311 9.822,1.516 9.881,1.81 L 10.462,1.81 L 10.462,0.235 L 9.815,0.235 L 9.815,0.414 C 9.815,0.477 9.756,0.55 9.638,0.487 C 9.348,0.335 8.529,0.01 7.525,0.004"
   id="path2429"
   style="fill:#000364;fill-opacity:1"
   transform="translate(0.575583,2.3941138e-2)" /><path
   clip-path="url(#XMLID_18_)"
   d="M 21.728,0.293 L 24.892,3.148 L 24.86,1.228 C 24.856,0.976 24.81,0.87 24.539,0.87 C 24.174,0.87 23.943,0.87 23.943,0.87 L 23.943,0.293 L 26.644,0.293 L 26.644,0.87 C 26.644,0.87 26.428,0.87 26.064,0.87 C 25.789,0.87 25.769,0.96 25.765,1.227 L 25.817,4.895 L 24.891,4.895 L 21.248,1.647 L 21.248,3.951 C 21.252,4.203 21.264,4.318 21.522,4.318 C 21.883,4.318 22.168,4.318 22.168,4.318 L 22.168,4.895 L 19.514,4.895 L 19.514,4.318 C 19.514,4.318 19.773,4.318 20.134,4.318 C 20.366,4.318 20.358,4.097 20.358,3.94 L 20.358,1.248 C 20.358,1.075 20.335,0.87 19.969,0.87 L 19.467,0.87 L 19.467,0.293"
   id="path2431"
   style="fill:#000364;fill-opacity:1"
   transform="translate(0.575583,2.3941138e-2)" /><path
   clip-path="url(#XMLID_18_)"
   d="M 29.734,4.318 C 29.761,4.318 29.875,4.318 29.894,4.307 C 29.957,4.291 30,4.244 30.02,4.197 C 30.028,4.181 30.032,4.093 30.032,4.077 C 30.032,4.077 30.032,3.195 30.032,3.169 C 30.032,3.143 30.032,3.138 29.993,3.085 C 29.954,3.032 28.338,1.206 28.264,1.122 C 28.174,1.022 28.01,0.87 27.766,0.87 C 27.571,0.87 27.205,0.87 27.205,0.87 L 27.205,0.293 L 30.373,0.293 L 30.373,0.865 C 30.373,0.865 30.068,0.865 29.993,0.865 C 29.902,0.865 29.844,0.949 29.923,1.044 C 29.923,1.044 30.989,2.318 30.997,2.335 C 31.009,2.345 31.017,2.351 31.028,2.34 C 31.044,2.324 32.123,1.054 32.131,1.049 C 32.182,0.986 32.151,0.87 32.036,0.87 C 31.966,0.87 31.644,0.87 31.644,0.87 L 31.644,0.293 L 34.244,0.293 L 34.244,0.87 C 34.244,0.87 33.859,0.87 33.664,0.87 C 33.451,0.87 33.365,0.907 33.209,1.086 C 33.135,1.17 31.503,3.032 31.46,3.08 C 31.436,3.106 31.436,3.143 31.436,3.169 C 31.436,3.2 31.436,3.988 31.436,4.077 C 31.436,4.093 31.444,4.177 31.452,4.197 C 31.473,4.245 31.512,4.292 31.574,4.307 C 31.598,4.313 31.708,4.318 31.735,4.318 C 31.848,4.318 32.327,4.318 32.327,4.318 L 32.327,4.895 L 29.175,4.895 L 29.175,4.318"
   id="path2433"
   style="fill:#000364;fill-opacity:1"
   transform="translate(0.575583,2.3941138e-2)" /><polyline
   clip-path="url(#XMLID_18_)"
   points="5.235,50.193 6.854,50.193 6.854,50.44 5.544,50.44 5.544,51.123       6.772,51.123 6.772,51.369 5.544,51.369 5.544,52.114 6.89,52.114 6.89,52.361 5.235,52.361     "
   id="polyline2435"
   style="fill:#000364;fill-opacity:1"
   transform="translate(0.575583,-0.3656718)" /><polyline
   clip-path="url(#XMLID_18_)"
   points="9.097,50.193 9.411,50.193 9.411,52.361 8.983,52.361       7.658,50.509 7.65,50.509 7.65,52.361 7.34,52.361 7.34,50.193 7.764,50.193 9.093,52.041 9.097,52.041     "
   id="polyline2437"
   style="fill:#000364;fill-opacity:1"
   transform="translate(0.575583,-0.3656718)" /><polyline
   clip-path="url(#XMLID_18_)"
   points="10.576,50.456 9.654,50.456 9.654,50.193 11.807,50.193       11.807,50.456 10.885,50.456 10.885,52.361 10.576,52.361     "
   id="polyline2439"
   style="fill:#000364;fill-opacity:1"
   transform="translate(0.575583,-0.3656718)" /><polyline
   clip-path="url(#XMLID_18_)"
   points="12.077,50.193 13.697,50.193 13.697,50.44 12.387,50.44       12.387,51.123 13.614,51.123 13.614,51.369 12.387,51.369 12.387,52.114 13.732,52.114 13.732,52.361 12.077,52.361     "
   id="polyline2441"
   style="fill:#000364;fill-opacity:1"
   transform="translate(0.575583,-0.3656718)" /><path
   clip-path="url(#XMLID_18_)"
   d="M 14.454,52.361 L 14.144,52.361 L 14.144,50.193 L 15.211,50.193 C 15.878,50.193 16.03,50.419 16.03,50.765 C 16.03,51.028 15.838,51.227 15.532,51.269 L 15.532,51.274 C 15.826,51.311 15.905,51.426 15.96,51.795 C 15.995,52.025 16.023,52.22 16.082,52.361 L 15.752,52.361 C 15.697,52.209 15.662,51.904 15.607,51.658 C 15.568,51.506 15.466,51.395 15.058,51.395 L 14.454,51.395 M 14.454,51.148 L 15.167,51.148 C 15.497,51.148 15.697,51.07 15.697,50.792 C 15.697,50.529 15.555,50.44 15.171,50.44 L 14.454,50.44 L 14.454,51.148 z "
   id="path2443"
   style="fill:#000364;fill-opacity:1"
   transform="translate(0.575583,-0.3656718)" /><polyline
   clip-path="url(#XMLID_18_)"
   points="17.136,50.456 16.214,50.456 16.214,50.193 18.367,50.193       18.367,50.456 17.445,50.456 17.445,52.361 17.136,52.361     "
   id="polyline2445"
   style="fill:#000364;fill-opacity:1"
   transform="translate(0.575583,-0.3656718)" /><path
   clip-path="url(#XMLID_18_)"
   d="M 19.916,51.795 L 18.587,51.795 L 18.305,52.361 L 17.96,52.361 L 19.074,50.193 L 19.439,50.193 L 20.552,52.361 L 20.196,52.361 M 19.794,51.548 L 19.253,50.456 L 18.712,51.548 L 19.794,51.548 z "
   id="path2447"
   style="fill:#000364;fill-opacity:1"
   transform="translate(0.575583,-0.3656718)" /><rect
   x="20.785999"
   y="50.193001"
   clip-path="url(#XMLID_18_)"
   width="0.31299999"
   height="2.168"
   id="rect2449"
   style="fill:#000364;fill-opacity:1"
   transform="translate(0.575583,-0.3656718)" /><polyline
   clip-path="url(#XMLID_18_)"
   points="23.319,50.193 23.629,50.193 23.629,52.361 23.205,52.361       21.877,50.509 21.873,50.509 21.873,52.361 21.559,52.361 21.559,50.193 21.986,50.193 23.312,52.041 23.319,52.041     "
   id="polyline2451"
   style="fill:#000364;fill-opacity:1"
   transform="translate(0.575583,-0.3656718)" /><polyline
   clip-path="url(#XMLID_18_)"
   points="24.414,50.414 24.409,50.414 24.409,52.361 24.096,52.361       24.096,50.193 24.594,50.193 25.551,52.094 26.508,50.193 27.006,50.193 27.006,52.361 26.691,52.361 26.691,50.414       26.688,50.414 25.715,52.361 25.386,52.361     "
   id="polyline2453"
   style="fill:#000364;fill-opacity:1"
   transform="translate(0.575583,-0.3656718)" /><polyline
   clip-path="url(#XMLID_18_)"
   points="27.468,50.193 29.088,50.193 29.088,50.44 27.777,50.44       27.777,51.123 29.005,51.123 29.005,51.369 27.777,51.369 27.777,52.114 29.127,52.114 29.127,52.361 27.468,52.361     "
   id="polyline2455"
   style="fill:#000364;fill-opacity:1"
   transform="translate(0.575583,-0.3656718)" /><polyline
   clip-path="url(#XMLID_18_)"
   points="31.295,50.193 31.609,50.193 31.609,52.361 31.182,52.361       29.855,50.509 29.848,50.509 29.848,52.361 29.539,52.361 29.539,50.193 29.962,50.193 31.291,52.041 31.295,52.041     "
   id="polyline2457"
   style="fill:#000364;fill-opacity:1"
   transform="translate(0.575583,-0.3656718)" /><polyline
   clip-path="url(#XMLID_18_)"
   points="32.797,50.456 31.875,50.456 31.875,50.193 34.028,50.193       34.028,50.456 33.106,50.456 33.106,52.361 32.797,52.361     "
   id="polyline2459"
   style="fill:#000364;fill-opacity:1"
   transform="translate(0.575583,-0.3656718)" /><path
   clip-path="url(#XMLID_18_)"
   d="M 8.388,48.52 C 8.286,49.239 7.607,49.512 6.811,49.512 C 5.65,49.512 5.113,48.699 5.113,47.801 C 5.113,47.024 5.576,46.09 6.94,46.09 C 7.712,46.09 8.301,46.478 8.344,47.029 L 7.819,47.029 C 7.74,46.609 7.356,46.457 6.905,46.457 C 6.164,46.457 5.607,46.888 5.607,47.801 C 5.607,48.714 6.164,49.145 6.905,49.145 C 7.352,49.145 7.783,48.945 7.865,48.52"
   id="path2461"
   style="fill:#000364;fill-opacity:1"
   transform="translate(0.575583,-0.3656718)" /><path
   clip-path="url(#XMLID_18_)"
   d="M 10.607,46.09 C 11.972,46.09 12.434,47.024 12.434,47.801 C 12.434,48.577 11.972,49.512 10.607,49.512 C 9.242,49.512 8.776,48.577 8.776,47.801 C 8.776,47.023 9.242,46.09 10.607,46.09 M 10.607,49.145 C 11.395,49.145 11.94,48.604 11.94,47.801 C 11.94,46.997 11.395,46.457 10.607,46.457 C 9.819,46.457 9.274,46.997 9.274,47.801 C 9.273,48.604 9.819,49.145 10.607,49.145 z "
   id="path2463"
   style="fill:#000364;fill-opacity:1"
   transform="translate(0.575583,-0.3656718)" /><polyline
   clip-path="url(#XMLID_18_)"
   points="13.403,46.51 13.395,46.51 13.395,49.428 12.928,49.428       12.928,46.174 13.673,46.174 15.108,49.028 16.54,46.174 17.289,46.174 17.289,49.428 16.818,49.428 16.818,46.51 16.81,46.51       15.355,49.428 14.857,49.428     "
   id="polyline2465"
   style="fill:#000364;fill-opacity:1"
   transform="translate(0.575583,-0.3656718)" /><path
   clip-path="url(#XMLID_18_)"
   d="M 18.045,46.174 L 19.539,46.174 C 20.519,46.174 20.85,46.468 20.85,47.056 C 20.85,47.622 20.473,48 19.685,48 L 18.512,48 L 18.512,49.428 L 18.046,49.428 M 19.567,47.627 C 20.108,47.627 20.352,47.439 20.352,47.056 C 20.352,46.703 20.151,46.546 19.532,46.546 L 18.512,46.546 L 18.512,47.627 L 19.567,47.627 L 19.567,47.627 z "
   id="path2467"
   style="fill:#000364;fill-opacity:1"
   transform="translate(0.575583,-0.3656718)" /><path
   clip-path="url(#XMLID_18_)"
   d="M 23.841,46.168 L 24.312,46.168 L 24.312,48.11 C 24.312,49.039 23.68,49.506 22.798,49.506 C 21.912,49.506 21.284,49.039 21.284,48.11 L 21.284,46.168 L 21.751,46.168 L 21.751,48.131 C 21.751,48.756 22.123,49.139 22.798,49.139 C 23.469,49.139 23.841,48.756 23.841,48.131"
   id="path2469"
   style="fill:#000364;fill-opacity:1"
   transform="translate(0.575583,-0.3656718)" /><polyline
   clip-path="url(#XMLID_18_)"
   points="25.994,46.572 24.613,46.572 24.613,46.174 27.84,46.174       27.84,46.572 26.46,46.572 26.46,49.428 25.994,49.428     "
   id="polyline2471"
   style="fill:#000364;fill-opacity:1"
   transform="translate(0.575583,-0.3656718)" /><polyline
   clip-path="url(#XMLID_18_)"
   points="28.146,46.174 30.582,46.174 30.582,46.546 28.617,46.546       28.617,47.569 30.452,47.569 30.452,47.942 28.617,47.942 28.617,49.055 30.633,49.055 30.633,49.428 28.146,49.428     "
   id="polyline2473"
   style="fill:#000364;fill-opacity:1"
   transform="translate(0.575583,-0.3656718)" /><path
   clip-path="url(#XMLID_18_)"
   d="M 31.581,49.428 L 31.111,49.428 L 31.111,46.174 L 32.711,46.174 C 33.715,46.174 33.941,46.515 33.941,47.034 C 33.941,47.433 33.652,47.726 33.197,47.79 L 33.197,47.801 C 33.635,47.853 33.754,48.031 33.84,48.582 C 33.891,48.929 33.934,49.218 34.025,49.428 L 33.527,49.428 C 33.44,49.197 33.393,48.74 33.307,48.378 C 33.252,48.142 33.099,47.979 32.488,47.979 L 31.582,47.979 M 31.581,47.606 L 32.648,47.606 C 33.146,47.606 33.443,47.491 33.443,47.076 C 33.443,46.678 33.228,46.546 32.656,46.546 L 31.581,46.546 L 31.581,47.606 z "
   id="path2475"
   style="fill:#000364;fill-opacity:1"
   transform="translate(0.575583,-0.3656718)" /><path
   clip-path="url(#XMLID_18_)"
   d="M 37.099,52.487 C 37.483,52.487 37.844,52.335 38.119,52.062 C 38.39,51.794 38.542,51.432 38.542,51.043 C 38.542,50.66 38.39,50.298 38.119,50.024 C 37.845,49.752 37.483,49.599 37.099,49.599 C 36.303,49.599 35.656,50.249 35.656,51.042 C 35.656,51.431 35.805,51.793 36.076,52.061 C 36.35,52.335 36.71,52.487 37.099,52.487 M 35.895,51.044 C 35.895,50.724 36.02,50.425 36.249,50.193 C 36.476,49.967 36.778,49.841 37.1,49.841 C 37.417,49.841 37.719,49.967 37.947,50.193 C 38.175,50.424 38.301,50.723 38.301,51.044 C 38.301,51.705 37.76,52.246 37.101,52.246 C 36.78,52.246 36.477,52.12 36.25,51.894 C 36.02,51.669 35.895,51.364 35.895,51.044 z "
   id="path2477"
   style="fill:#000364;fill-opacity:1"
   transform="translate(0.575583,-0.3656718)" /><path
   clip-path="url(#XMLID_18_)"
   d="M 37.809,51.716 C 37.789,51.705 37.774,51.685 37.762,51.648 C 37.754,51.622 37.75,51.58 37.75,51.522 L 37.742,51.317 C 37.737,51.217 37.718,51.149 37.682,51.102 C 37.659,51.071 37.623,51.049 37.587,51.023 C 37.635,50.992 37.678,50.956 37.705,50.908 C 37.749,50.84 37.772,50.762 37.772,50.662 C 37.772,50.473 37.689,50.336 37.532,50.268 C 37.45,50.231 37.348,50.209 37.227,50.209 L 36.516,50.209 L 36.481,50.209 L 36.481,50.246 L 36.481,51.784 L 36.481,51.82 L 36.516,51.82 L 36.725,51.82 L 36.76,51.82 L 36.76,51.784 L 36.76,51.159 L 37.2,51.159 C 37.279,51.159 37.338,51.17 37.373,51.185 C 37.428,51.211 37.459,51.269 37.463,51.353 L 37.475,51.61 C 37.479,51.673 37.483,51.715 37.487,51.736 C 37.491,51.762 37.499,51.784 37.507,51.799 L 37.519,51.82 L 37.539,51.82 L 37.795,51.82 L 37.83,51.82 L 37.83,51.784 L 37.83,51.747 L 37.83,51.726 M 37.486,50.682 C 37.486,50.772 37.466,50.829 37.42,50.861 C 37.369,50.898 37.299,50.914 37.208,50.914 L 36.762,50.914 L 36.762,50.462 L 37.237,50.462 C 37.3,50.462 37.354,50.473 37.389,50.488 C 37.455,50.524 37.486,50.587 37.486,50.682 z "
   id="path2479"
   style="fill:#000364;fill-opacity:1"
   transform="translate(0.575583,-0.3656718)" /><g
   transform="translate(0.3929122,-0.5866852)"
   clip-path="url(#XMLID_19_)"
   id="g2399">
						
							
					<rect
   transform="scale(-1,-1)"
   y="-45.689117"
   x="-39.084572"
   height="39.566326"
   width="39.36948"
   id="rect6847"
   style="opacity:1;fill:#ffe403;fill-opacity:1;fill-rule:nonzero;stroke:none;stroke-width:0.523;stroke-linejoin:round;stroke-miterlimit:4;stroke-dasharray:none;stroke-opacity:1" /><rect
   y="6.1227894"
   x="-0.28490853"
   height="39.566326"
   width="39.36948"
   id="rect15688"
   style="opacity:1;fill:url(#linearGradient15690);fill-opacity:1;fill-rule:nonzero;stroke:none;stroke-width:0.523;stroke-linejoin:round;stroke-miterlimit:4;stroke-dasharray:none;stroke-opacity:1" /><rect
   style="opacity:1;fill:url(#linearGradient15694);fill-opacity:1;fill-rule:nonzero;stroke:none;stroke-width:0.523;stroke-linejoin:round;stroke-miterlimit:4;stroke-dasharray:none;stroke-opacity:1"
   id="rect15692"
   width="39.36948"
   height="39.566326"
   x="-39.084572"
   y="6.1227894"
   transform="scale(-1,1)" /></g><path
   style="opacity:1;color:#000000;fill:url(#linearGradient12749);fill-opacity:1.0;fill-rule:evenodd;stroke:none;stroke-width:0.63131315px;stroke-linecap:butt;stroke-linejoin:miter;marker:none;marker-start:none;marker-mid:none;marker-end:none;stroke-miterlimit:4;stroke-dasharray:none;stroke-dashoffset:0;stroke-opacity:1;visibility:visible;display:inline;overflow:visible;enable-background:accumulate"
   d="M 13.381028,18.158504 L 21.058076,25.933976 L 21.058076,10.481456 L 13.381028,18.158504 z "
   id="path10782" /><path
   id="path12751"
   d="M 26.668227,31.445703 L 18.991179,39.221175 L 18.991179,23.768655 L 26.668227,31.445703 z "
   style="opacity:1;color:#000000;fill:url(#linearGradient12767);fill-opacity:1;fill-rule:evenodd;stroke:none;stroke-width:0.63131315px;stroke-linecap:butt;stroke-linejoin:miter;marker:none;marker-start:none;marker-mid:none;marker-end:none;stroke-miterlimit:4;stroke-dasharray:none;stroke-dashoffset:0;stroke-opacity:1;visibility:visible;display:inline;overflow:visible;enable-background:accumulate" /></g>
		</g>
	</g>
</g>
</svg>